# xmcd CD database file
#
# Track frame offsets:
#	150
#	12595
#	25607
#	40467
#	77997
#	94755
#	104157
#	118082
#	132592
#	146985
#	159930
#	177797
#
# Disc length: 2587 seconds
#
# Revision: 0
# Processed by: cddbd v1.4PL0 Copyright (c) Steve Scherf et al.
# Submitted via: NeoAudio 9.9.9
#
DISCID=a80a190c
DTITLE=Betty Wright - The Essentials: Betty Wright
DYEAR=2002
DGENRE=Blues
TTITLE0=Clean Up Woman
TTITLE1=Baby Sitter
TTITLE2=Let Me Be Your Lovemaker
TTITLE3=Tonight is the Night (Pts. 1 and 2)
TTITLE4=Dance With Me w/Peter Brown
TTITLE5=Girls Can't Do What The Guys Do
TTITLE6=If You Love Me Like You Say You Love Me
TTITLE7=Is It Your Girl
TTITLE8=It's Hard To Stop (Doing Something When It's Good To You)
TTITLE9=Secretary
TTITLE10=Where Is The Love
TTITLE11=You Should Do It w/Peter Brown
EXTD=YEAR: 2002
EXTT0=
EXTT1=
EXTT2=
EXTT3=
EXTT4=
EXTT5=
EXTT6=
EXTT7=
EXTT8=
EXTT9=
EXTT10=
EXTT11=
PLAYORDER=
